<svg width="220" height="220" viewBox="0 0 220 220" fill="none" xmlns="http://www.w3.org/2000/svg">
<g clip-path="url(#clip0_122_10)">
<path d="M110 220.001C170.752 220.001 220.001 170.752 220.001 110C220.001 49.2488 170.752 0 110 0C49.2488 0 0 49.2488 0 110C0 170.752 49.2488 220.001 110 220.001Z" fill="#81ECEC"/>
<g clip-path="url(#clip1_122_10)">
<path d="M177.937 83.3745C177.937 72.122 168.843 63 157.625 63C146.407 63 137.312 72.122 137.312 83.3745V89.5005C137.312 100.753 146.407 109.875 157.625 109.875C168.843 109.875 177.937 100.753 177.937 89.5005V83.3745Z" fill="#292D32"/>
<path d="M82.625 83.3745C82.625 72.122 73.5308 63 62.3125 63C51.0942 63 42 72.122 42 83.3745V89.5006C42 100.753 51.0942 109.875 62.3125 109.875C73.5308 109.875 82.625 100.753 82.625 89.5006V83.3745Z" fill="#292D32"/>
</g>
<mask id="path-4-inside-1_122_10" fill="white">
<path d="M159.32 128.48C159.737 128.48 160.145 128.6 160.494 128.826C160.843 129.051 161.119 129.373 161.288 129.751C163.927 134.865 164.574 140.765 163.105 146.322C161.636 151.88 158.154 156.705 153.324 159.876C148.471 163.117 142.585 164.471 136.789 163.679C130.994 162.888 125.695 160.007 121.905 155.586C121.699 155.151 121.637 154.663 121.729 154.192C121.82 153.72 122.059 153.289 122.413 152.962C122.766 152.634 123.215 152.425 123.696 152.366C124.176 152.308 124.663 152.401 125.086 152.634C128.193 156.279 132.545 158.661 137.31 159.327C142.075 159.993 146.92 158.895 150.921 156.244C157.192 152.089 162.661 143.1 157.329 131.499C157.139 130.967 157.156 130.384 157.376 129.864C157.596 129.343 158.003 128.923 158.519 128.684C158.769 128.563 159.041 128.493 159.32 128.48V128.48Z"/>
</mask>
<path d="M159.32 128.48C159.737 128.48 160.145 128.6 160.494 128.826C160.843 129.051 161.119 129.373 161.288 129.751C163.927 134.865 164.574 140.765 163.105 146.322C161.636 151.88 158.154 156.705 153.324 159.876C148.471 163.117 142.585 164.471 136.789 163.679C130.994 162.888 125.695 160.007 121.905 155.586C121.699 155.151 121.637 154.663 121.729 154.192C121.82 153.72 122.059 153.289 122.413 152.962C122.766 152.634 123.215 152.425 123.696 152.366C124.176 152.308 124.663 152.401 125.086 152.634C128.193 156.279 132.545 158.661 137.31 159.327C142.075 159.993 146.92 158.895 150.921 156.244C157.192 152.089 162.661 143.1 157.329 131.499C157.139 130.967 157.156 130.384 157.376 129.864C157.596 129.343 158.003 128.923 158.519 128.684C158.769 128.563 159.041 128.493 159.32 128.48V128.48Z" fill="#292D32"/>
<path d="M161.288 129.751L150.326 134.635L150.466 134.949L150.624 135.255L161.288 129.751ZM153.324 159.876L146.738 149.845L146.699 149.871L146.66 149.897L153.324 159.876ZM121.905 155.586L111.061 160.725L111.749 162.176L112.794 163.396L121.905 155.586ZM125.086 152.634L134.217 144.848L132.793 143.179L130.871 142.121L125.086 152.634ZM150.921 156.244L144.293 146.24L144.293 146.241L150.921 156.244ZM157.329 131.499L146.027 135.532L146.205 136.03L146.425 136.511L157.329 131.499ZM158.519 128.684L163.558 139.575L163.665 139.526L163.771 139.474L158.519 128.684ZM159.323 140.48C157.434 140.48 155.579 139.937 153.983 138.906L167.005 118.746C164.71 117.263 162.039 116.479 159.317 116.48L159.323 140.48ZM153.983 138.906C152.385 137.873 151.11 136.393 150.326 134.635L172.249 124.868C171.129 122.353 169.302 120.23 167.005 118.746L153.983 138.906ZM150.624 135.255C151.902 137.73 152.212 140.576 151.503 143.255L174.706 149.389C176.936 140.954 175.952 132.001 171.951 124.248L150.624 135.255ZM151.503 143.255C150.795 145.937 149.108 148.289 146.738 149.845L159.911 169.907C167.199 165.121 172.477 157.823 174.706 149.389L151.503 143.255ZM146.66 149.897C144.25 151.506 141.313 152.186 138.413 151.79L135.166 175.569C143.857 176.756 152.692 174.728 159.988 169.856L146.66 149.897ZM138.413 151.79C135.514 151.394 132.884 149.955 131.016 147.775L112.794 163.396C118.506 170.058 126.474 174.382 135.166 175.569L138.413 151.79ZM132.749 150.446C133.636 152.319 133.905 154.43 133.51 156.471L109.947 151.912C109.37 154.896 109.762 157.984 111.061 160.725L132.749 150.446ZM133.51 156.471C133.115 158.512 132.081 160.361 130.575 161.758L114.251 144.165C112.038 146.218 110.524 148.928 109.947 151.912L133.51 156.471ZM130.575 161.758C129.07 163.155 127.17 164.031 125.154 164.278L122.238 140.455C119.261 140.82 116.463 142.112 114.251 144.165L130.575 161.758ZM125.154 164.278C123.137 164.524 121.09 164.132 119.301 163.148L130.871 142.121C128.236 140.671 125.214 140.091 122.238 140.455L125.154 164.278ZM115.955 160.42C120.977 166.31 127.991 170.142 135.649 171.212L138.97 147.443C137.099 147.181 135.41 146.248 134.217 144.848L115.955 160.42ZM135.649 171.212C143.307 172.282 151.101 170.52 157.55 166.247L144.293 146.241C142.739 147.271 140.843 147.704 138.97 147.443L135.649 171.212ZM157.549 166.247C162.543 162.939 167.324 157.666 169.795 150.649C172.363 143.355 172.137 134.983 168.232 126.488L146.425 136.511C147.853 139.616 147.558 141.539 147.157 142.679C146.658 144.095 145.57 145.395 144.293 146.24L157.549 166.247ZM168.631 127.466C169.451 129.766 169.379 132.289 168.429 134.536L146.323 125.191C144.933 128.479 144.827 132.169 146.027 135.532L168.631 127.466ZM168.429 134.536C167.48 136.781 165.734 138.568 163.558 139.575L153.48 117.794C150.273 119.278 147.712 121.906 146.323 125.191L168.429 134.536ZM163.771 139.474C162.553 140.067 161.23 140.404 159.882 140.467L158.758 116.493C156.853 116.583 154.985 117.058 153.267 117.895L163.771 139.474Z" fill="#292D32" mask="url(#path-4-inside-1_122_10)"/>
</g>
<defs>
<clipPath id="clip0_122_10">
<rect width="220" height="220" fill="white"/>
</clipPath>
<clipPath id="clip1_122_10">
<rect width="136.656" height="46.8202" fill="white" transform="translate(42 63)"/>
</clipPath>
</defs>
</svg>
