<svg width="117" height="31" viewBox="0 0 117 31" fill="none" xmlns="http://www.w3.org/2000/svg">
<g clip-path="url(#clip0_801_38)">
<path d="M0.82 26V7.28H3.576L12.793 21.19V7.28H15.549V26H12.793L3.576 12.077V26H0.82ZM25.4044 26.39C24.0091 26.39 22.7828 26.0867 21.7254 25.48C20.6768 24.8647 19.8578 24.011 19.2684 22.919C18.6878 21.8183 18.3974 20.5443 18.3974 19.097C18.3974 17.563 18.6834 16.2327 19.2554 15.106C19.8361 13.9793 20.6421 13.1083 21.6734 12.493C22.7048 11.8777 23.9051 11.57 25.2744 11.57C26.7044 11.57 27.9221 11.9037 28.9274 12.571C29.9328 13.2297 30.6824 14.17 31.1764 15.392C31.6791 16.614 31.8784 18.0657 31.7744 19.747H29.0574V18.759C29.0401 17.1297 28.7281 15.925 28.1214 15.145C27.5234 14.365 26.6091 13.975 25.3784 13.975C24.0178 13.975 22.9951 14.404 22.3104 15.262C21.6258 16.12 21.2834 17.3593 21.2834 18.98C21.2834 20.5227 21.6258 21.7187 22.3104 22.568C22.9951 23.4087 23.9831 23.829 25.2744 23.829C26.1238 23.829 26.8561 23.6383 27.4714 23.257C28.0954 22.867 28.5808 22.3123 28.9274 21.593L31.5924 22.438C31.0464 23.6947 30.2188 24.6697 29.1094 25.363C28.0001 26.0477 26.7651 26.39 25.4044 26.39ZM20.3994 19.747V17.628H30.4224V19.747H20.3994ZM39.9821 26.377C39.0114 26.377 38.1968 26.221 37.5381 25.909C36.8794 25.597 36.3421 25.1897 35.9261 24.687C35.5188 24.1757 35.2068 23.621 34.9901 23.023C34.7734 22.425 34.6261 21.84 34.5481 21.268C34.4701 20.696 34.4311 20.1933 34.4311 19.76V11.96H37.1871V18.863C37.1871 19.409 37.2304 19.9723 37.3171 20.553C37.4124 21.125 37.5858 21.658 37.8371 22.152C38.0971 22.646 38.4568 23.0447 38.9161 23.348C39.3841 23.6513 39.9908 23.803 40.7361 23.803C41.2214 23.803 41.6808 23.725 42.1141 23.569C42.5474 23.4043 42.9244 23.1443 43.2451 22.789C43.5744 22.4337 43.8301 21.9657 44.0121 21.385C44.2028 20.8043 44.2981 20.098 44.2981 19.266L45.9881 19.903C45.9881 21.177 45.7498 22.3037 45.2731 23.283C44.7964 24.2537 44.1118 25.012 43.2191 25.558C42.3264 26.104 41.2474 26.377 39.9821 26.377ZM44.6231 26V21.944H44.2981V11.96H47.0411V26H44.6231ZM67.5092 26L67.5222 17.251C67.5222 16.237 67.2622 15.4483 66.7422 14.885C66.2222 14.313 65.5375 14.027 64.6882 14.027C64.1682 14.027 63.6915 14.1483 63.2582 14.391C62.8335 14.625 62.4869 14.9803 62.2182 15.457C61.9582 15.925 61.8282 16.5143 61.8282 17.225L60.5152 16.562C60.4979 15.574 60.7059 14.7073 61.1392 13.962C61.5812 13.2167 62.1792 12.6403 62.9332 12.233C63.6872 11.817 64.5322 11.609 65.4682 11.609C66.9849 11.609 68.1592 12.064 68.9912 12.974C69.8232 13.884 70.2392 15.093 70.2392 16.601L70.2262 26H67.5092ZM50.6742 26V11.96H53.0922V16.016H53.4042V26H50.6742ZM59.0982 26L59.1112 17.303C59.1112 16.2803 58.8512 15.4787 58.3312 14.898C57.8199 14.3173 57.1309 14.027 56.2642 14.027C55.4062 14.027 54.7129 14.3217 54.1842 14.911C53.6642 15.5003 53.4042 16.2717 53.4042 17.225L52.1042 16.393C52.1042 15.4743 52.3252 14.6553 52.7672 13.936C53.2092 13.2167 53.8072 12.649 54.5612 12.233C55.3152 11.817 56.1689 11.609 57.1222 11.609C58.1189 11.609 58.9682 11.8213 59.6702 12.246C60.3722 12.662 60.9052 13.247 61.2692 14.001C61.6419 14.755 61.8282 15.6303 61.8282 16.627L61.8152 26H59.0982ZM77.5799 26.39C76.5399 26.39 75.6689 26.1993 74.9669 25.818C74.2649 25.428 73.7319 24.9167 73.3679 24.284C73.0126 23.6427 72.8349 22.9407 72.8349 22.178C72.8349 21.4673 72.9606 20.8433 73.2119 20.306C73.4633 19.7687 73.8359 19.3137 74.3299 18.941C74.8239 18.5597 75.4306 18.252 76.1499 18.018C76.7739 17.836 77.4803 17.6757 78.2689 17.537C79.0576 17.3983 79.8853 17.2683 80.7519 17.147C81.6273 17.0257 82.4939 16.9043 83.3519 16.783L82.3639 17.329C82.3813 16.2283 82.1473 15.4137 81.6619 14.885C81.1853 14.3477 80.3619 14.079 79.1919 14.079C78.4553 14.079 77.7793 14.2523 77.1639 14.599C76.5486 14.937 76.1196 15.5003 75.8769 16.289L73.3419 15.509C73.6886 14.3043 74.3473 13.3467 75.3179 12.636C76.2973 11.9253 77.5973 11.57 79.2179 11.57C80.4746 11.57 81.5666 11.7867 82.4939 12.22C83.4299 12.6447 84.1146 13.3207 84.5479 14.248C84.7733 14.7073 84.9119 15.1927 84.9639 15.704C85.0159 16.2153 85.0419 16.7657 85.0419 17.355V26H82.6369V22.789L83.1049 23.205C82.5243 24.2797 81.7833 25.0813 80.8819 25.61C79.9893 26.13 78.8886 26.39 77.5799 26.39ZM78.0609 24.167C78.8323 24.167 79.4953 24.0327 80.0499 23.764C80.6046 23.4867 81.0509 23.1357 81.3889 22.711C81.7269 22.2863 81.9479 21.8443 82.0519 21.385C82.1993 20.969 82.2816 20.501 82.2989 19.981C82.3249 19.461 82.3379 19.045 82.3379 18.733L83.2219 19.058C82.3639 19.188 81.5839 19.305 80.8819 19.409C80.1799 19.513 79.5429 19.617 78.9709 19.721C78.4076 19.8163 77.9049 19.9333 77.4629 20.072C77.0903 20.202 76.7566 20.358 76.4619 20.54C76.1759 20.722 75.9463 20.943 75.7729 21.203C75.6083 21.463 75.5259 21.7793 75.5259 22.152C75.5259 22.516 75.6169 22.854 75.7989 23.166C75.9809 23.4693 76.2583 23.712 76.6309 23.894C77.0036 24.076 77.4803 24.167 78.0609 24.167ZM98.2717 26V19.097C98.2717 18.551 98.224 17.992 98.1287 17.42C98.042 16.8393 97.8687 16.302 97.6087 15.808C97.3573 15.314 96.9977 14.9153 96.5297 14.612C96.0703 14.3087 95.468 14.157 94.7227 14.157C94.2373 14.157 93.778 14.2393 93.3447 14.404C92.9113 14.56 92.53 14.8157 92.2007 15.171C91.88 15.5263 91.6243 15.9943 91.4337 16.575C91.2517 17.1557 91.1607 17.862 91.1607 18.694L89.4707 18.057C89.4707 16.783 89.709 15.6607 90.1857 14.69C90.6623 13.7107 91.347 12.948 92.2397 12.402C93.1323 11.856 94.2113 11.583 95.4767 11.583C96.4473 11.583 97.262 11.739 97.9207 12.051C98.5793 12.363 99.1123 12.7747 99.5197 13.286C99.9357 13.7887 100.252 14.339 100.469 14.937C100.685 15.535 100.833 16.12 100.911 16.692C100.989 17.264 101.028 17.7667 101.028 18.2V26H98.2717ZM88.4047 26V11.96H90.8357V16.016H91.1607V26H88.4047Z" fill="#EFEEF3"/>
<circle cx="108.5" cy="23.5" r="2.5" fill="#81ECEC"/>
</g>
<defs>
<clipPath id="clip0_801_38">
<rect width="117" height="31" fill="white"/>
</clipPath>
</defs>
</svg>
