<svg width="85" height="28" viewBox="0 0 85 28" fill="none" xmlns="http://www.w3.org/2000/svg">
<path d="M15.4886 7.36364C15.3352 6.06818 14.7131 5.0625 13.6222 4.34659C12.5313 3.63068 11.1932 3.27273 9.60795 3.27273C8.44886 3.27273 7.43466 3.46023 6.56534 3.83523C5.70455 4.21023 5.03125 4.72585 4.54545 5.3821C4.06818 6.03835 3.82955 6.78409 3.82955 7.61932C3.82955 8.31818 3.99574 8.91903 4.32812 9.42188C4.66903 9.91619 5.10369 10.3295 5.6321 10.6619C6.16051 10.9858 6.71449 11.2543 7.29403 11.4673C7.87358 11.6719 8.40625 11.8381 8.89205 11.9659L11.5511 12.6818C12.233 12.8608 12.9915 13.108 13.8267 13.4233C14.6705 13.7386 15.4759 14.169 16.2429 14.7145C17.0185 15.2514 17.6577 15.9418 18.1605 16.7855C18.6634 17.6293 18.9148 18.6648 18.9148 19.892C18.9148 21.3068 18.544 22.5852 17.8026 23.7273C17.0696 24.8693 15.9957 25.777 14.581 26.4503C13.1747 27.1236 11.4659 27.4602 9.45455 27.4602C7.57955 27.4602 5.95597 27.1577 4.58381 26.5526C3.22017 25.9474 2.14631 25.1037 1.36222 24.0213C0.586648 22.9389 0.147727 21.6818 0.0454546 20.25H3.31818C3.40341 21.2386 3.7358 22.0568 4.31534 22.7045C4.90341 23.3437 5.64489 23.821 6.53977 24.1364C7.44318 24.4432 8.41477 24.5966 9.45455 24.5966C10.6648 24.5966 11.7514 24.4006 12.7145 24.0085C13.6776 23.608 14.4403 23.054 15.0028 22.3466C15.5653 21.6307 15.8466 20.7955 15.8466 19.8409C15.8466 18.9716 15.6037 18.2642 15.1179 17.7188C14.6321 17.1733 13.9929 16.7301 13.2003 16.3892C12.4077 16.0483 11.5511 15.75 10.6307 15.4943L7.40909 14.5739C5.36364 13.9858 3.74432 13.1463 2.55114 12.0554C1.35795 10.9645 0.761364 9.53693 0.761364 7.77273C0.761364 6.30682 1.15767 5.02841 1.95028 3.9375C2.75142 2.83807 3.82528 1.98579 5.17188 1.38068C6.52699 0.767045 8.03977 0.460226 9.71023 0.460226C11.3977 0.460226 12.8977 0.762783 14.2102 1.3679C15.5227 1.96449 16.5625 2.78267 17.3295 3.82244C18.1051 4.86221 18.5142 6.04261 18.5568 7.36364H15.4886ZM31.6957 27.4091C29.9229 27.4091 28.3675 26.9872 27.0295 26.1435C25.6999 25.2997 24.6602 24.1193 23.9102 22.6023C23.1687 21.0852 22.7979 19.3125 22.7979 17.2841C22.7979 15.2386 23.1687 13.4531 23.9102 11.9276C24.6602 10.402 25.6999 9.21733 27.0295 8.37358C28.3675 7.52983 29.9229 7.10795 31.6957 7.10795C33.4684 7.10795 35.0195 7.52983 36.3491 8.37358C37.6871 9.21733 38.7269 10.402 39.4684 11.9276C40.2184 13.4531 40.5934 15.2386 40.5934 17.2841C40.5934 19.3125 40.2184 21.0852 39.4684 22.6023C38.7269 24.1193 37.6871 25.2997 36.3491 26.1435C35.0195 26.9872 33.4684 27.4091 31.6957 27.4091ZM31.6957 24.6989C33.0423 24.6989 34.1502 24.3537 35.0195 23.6634C35.8888 22.973 36.5323 22.0653 36.9499 20.9403C37.3675 19.8153 37.5764 18.5966 37.5764 17.2841C37.5764 15.9716 37.3675 14.7486 36.9499 13.6151C36.5323 12.4815 35.8888 11.5653 35.0195 10.8665C34.1502 10.1676 33.0423 9.81818 31.6957 9.81818C30.3491 9.81818 29.2411 10.1676 28.3718 10.8665C27.5025 11.5653 26.859 12.4815 26.4414 13.6151C26.0238 14.7486 25.815 15.9716 25.815 17.2841C25.815 18.5966 26.0238 19.8153 26.4414 20.9403C26.859 22.0653 27.5025 22.973 28.3718 23.6634C29.2411 24.3537 30.3491 24.6989 31.6957 24.6989ZM53.7386 7.36364V9.92045H43.5625V7.36364H53.7386ZM46.5284 2.65909H49.5455V21.375C49.5455 22.2273 49.669 22.8665 49.9162 23.2926C50.1719 23.7102 50.4957 23.9915 50.8878 24.1364C51.2884 24.2727 51.7102 24.3409 52.1534 24.3409C52.4858 24.3409 52.7585 24.3239 52.9716 24.2898C53.1847 24.2472 53.3551 24.2131 53.483 24.1875L54.0966 26.8977C53.892 26.9744 53.6065 27.0511 53.2401 27.1278C52.8736 27.2131 52.4091 27.2557 51.8466 27.2557C50.9943 27.2557 50.1591 27.0724 49.3409 26.706C48.5313 26.3395 47.858 25.7812 47.321 25.0312C46.7926 24.2812 46.5284 23.3352 46.5284 22.1932V2.65909ZM66.0433 27.4091C64.2706 27.4091 62.7152 26.9872 61.3771 26.1435C60.0476 25.2997 59.0078 24.1193 58.2578 22.6023C57.5163 21.0852 57.1456 19.3125 57.1456 17.2841C57.1456 15.2386 57.5163 13.4531 58.2578 11.9276C59.0078 10.402 60.0476 9.21733 61.3771 8.37358C62.7152 7.52983 64.2706 7.10795 66.0433 7.10795C67.8161 7.10795 69.3672 7.52983 70.6967 8.37358C72.0348 9.21733 73.0746 10.402 73.8161 11.9276C74.5661 13.4531 74.9411 15.2386 74.9411 17.2841C74.9411 19.3125 74.5661 21.0852 73.8161 22.6023C73.0746 24.1193 72.0348 25.2997 70.6967 26.1435C69.3672 26.9872 67.8161 27.4091 66.0433 27.4091ZM66.0433 24.6989C67.3899 24.6989 68.4979 24.3537 69.3672 23.6634C70.2365 22.973 70.88 22.0653 71.2976 20.9403C71.7152 19.8153 71.924 18.5966 71.924 17.2841C71.924 15.9716 71.7152 14.7486 71.2976 13.6151C70.88 12.4815 70.2365 11.5653 69.3672 10.8665C68.4979 10.1676 67.3899 9.81818 66.0433 9.81818C64.6967 9.81818 63.5888 10.1676 62.7195 10.8665C61.8501 11.5653 61.2067 12.4815 60.7891 13.6151C60.3714 14.7486 60.1626 15.9716 60.1626 17.2841C60.1626 18.5966 60.3714 19.8153 60.7891 20.9403C61.2067 22.0653 61.8501 22.973 62.7195 23.6634C63.5888 24.3537 64.6967 24.6989 66.0433 24.6989Z" fill="white"/>
<path d="M81.7454 27.2045C81.1147 27.2045 80.5735 26.9787 80.1218 26.527C79.6701 26.0753 79.4442 25.5341 79.4442 24.9034C79.4442 24.2727 79.6701 23.7315 80.1218 23.2798C80.5735 22.8281 81.1147 22.6023 81.7454 22.6023C82.3761 22.6023 82.9173 22.8281 83.369 23.2798C83.8207 23.7315 84.0465 24.2727 84.0465 24.9034C84.0465 25.321 83.94 25.7045 83.7269 26.054C83.5224 26.4034 83.2454 26.6847 82.896 26.8977C82.555 27.1023 82.1715 27.2045 81.7454 27.2045Z" fill="#519DE3"/>
</svg>
